<svg xmlns="http://www.w3.org/2000/svg" viewBox="0 0 453.98 468.43"><defs><style>.cls-1,.cls-3{fill:#8973ad;}.cls-2,.cls-5{fill:none;}.cls-2,.cls-3,.cls-4,.cls-5{stroke:#8973ad;}.cls-2,.cls-3,.cls-5,.cls-6{stroke-linecap:round;stroke-linejoin:round;}.cls-2,.cls-3{stroke-width:13px;}.cls-4,.cls-6{fill:#fff;}.cls-4{stroke-miterlimit:10;}.cls-5{stroke-width:15px;}.cls-6{stroke:#fff;stroke-width:7px;}</style></defs><g id="Calque_2" data-name="Calque 2"><g id="Calque_1-2" data-name="Calque 1"><path class="cls-1" d="M168.88,459a21.12,21.12,0,0,0,9.46,2.37c3.92,0,6-1.63,6-4.11,0-2.32-1.8-3.69-6.32-5.28-6.3-2.23-10.41-5.66-10.41-11.18,0-6.43,5.4-11.32,14.27-11.32a22.3,22.3,0,0,1,9.64,1.9l-1.89,6.84a18.12,18.12,0,0,0-7.87-1.79c-3.72,0-5.49,1.72-5.49,3.65,0,2.39,2.09,3.46,7,5.3,6.69,2.5,9.78,6,9.78,11.31,0,6.3-4.83,11.71-15.22,11.71a24.47,24.47,0,0,1-10.66-2.35Z" transform="translate(-92.36)"/><path class="cls-1" d="M203.58,440.41l2.2,11.23c.55,2.82,1.1,5.87,1.56,9h.13c.51-3.12,1.34-6.24,2-8.93l2.88-11.3h6.75l2.74,10.92c.74,3.13,1.47,6.19,2,9.31H224c.39-3.11.94-6.21,1.59-9.36l2.33-10.87h8.32l-8.38,27.41h-8l-2.57-9.61c-.71-2.7-1.21-5.15-1.78-8.56h-.12a67.44,67.44,0,0,1-1.75,8.51l-2.74,9.66h-8l-8-27.41Z" transform="translate(-92.36)"/><path class="cls-1" d="M245.92,456.85c.26,3.54,3.75,5.22,7.73,5.22a23,23,0,0,0,7.54-1.16l1.15,5.76a26.53,26.53,0,0,1-9.93,1.74c-9.29,0-14.62-5.41-14.62-14,0-7,4.35-14.67,13.82-14.67,8.88,0,12.24,6.91,12.24,13.69a16.27,16.27,0,0,1-.31,3.37Zm10-5.84c0-2.05-.91-5.55-4.78-5.55-3.6,0-5.06,3.29-5.3,5.55Z" transform="translate(-92.36)"/><path class="cls-1" d="M275.49,456.85c.26,3.54,3.75,5.22,7.73,5.22a23,23,0,0,0,7.54-1.16l1.15,5.76a26.53,26.53,0,0,1-9.93,1.74c-9.29,0-14.62-5.41-14.62-14,0-7,4.34-14.67,13.82-14.67,8.88,0,12.24,6.91,12.24,13.69a16.27,16.27,0,0,1-.31,3.37Zm10-5.84c0-2.05-.91-5.55-4.78-5.55-3.6,0-5.06,3.29-5.3,5.55Z" transform="translate(-92.36)"/><path class="cls-1" d="M308,432.59v7.82h6.13v6.28H308v9.93c0,3.31.82,4.83,3.36,4.83a11.1,11.1,0,0,0,2.53-.25l.07,6.47a17.82,17.82,0,0,1-5.52.74A8.89,8.89,0,0,1,302,466c-1.59-1.63-2.36-4.23-2.36-8.13V446.69H296v-6.28h3.64v-5.89Z" transform="translate(-92.36)"/><path class="cls-1" d="M320,467.82V446.69h-3.62v-6.28H320v-1c0-3.3,1-6.93,3.44-9.19a11.14,11.14,0,0,1,7.59-2.74,16.49,16.49,0,0,1,4.51.58l-.34,6.54a9,9,0,0,0-2.75-.39c-2.8,0-4,2.2-4,4.85v1.39H334v6.28h-5.42v21.13Z" transform="translate(-92.36)"/><path class="cls-1" d="M364.61,453.84c0,10-7.09,14.59-14.44,14.59-8,0-14.15-5.27-14.15-14.12s5.83-14.52,14.64-14.52C359,439.79,364.61,445.56,364.61,453.84Zm-19.81.28c0,4.68,2,8.23,5.61,8.23,3.32,0,5.42-3.33,5.42-8.27,0-4.05-1.56-8.2-5.41-8.2C346.35,445.88,344.8,450.06,344.8,454.12Z" transform="translate(-92.36)"/><path class="cls-1" d="M369.89,449.44c0-4-.07-6.67-.22-9H377l.31,5.07h.21a8,8,0,0,1,7.4-5.69,7.34,7.34,0,0,1,1.82.16v8a11.23,11.23,0,0,0-2.31-.23c-3.13,0-5.27,1.66-5.84,4.32a9.91,9.91,0,0,0-.16,1.9v13.87h-8.53Z" transform="translate(-92.36)"/><path class="cls-1" d="M391.06,449.16c0-3.41-.11-6.3-.22-8.75H398l.36,3.71h.18a9.48,9.48,0,0,1,8.27-4.33,7.73,7.73,0,0,1,7.5,4.7h.11a11.47,11.47,0,0,1,3.57-3.34,9.75,9.75,0,0,1,5.2-1.36c5.23,0,9.22,3.71,9.22,11.9v16.13h-8.29V452.93c0-4-1.28-6.27-4-6.27a4.15,4.15,0,0,0-3.92,3,7.33,7.33,0,0,0-.31,2.16v16h-8.29V452.45c0-3.45-1.23-5.79-3.95-5.79a4.35,4.35,0,0,0-4,3.06,6.23,6.23,0,0,0-.32,2.15v15.95h-8.29Z" transform="translate(-92.36)"/><path class="cls-1" d="M439.18,460.39a16.54,16.54,0,0,0,7.31,2c2.57,0,3.67-.87,3.67-2.26s-.87-2.11-4-3.17c-5.7-1.88-7.84-5-7.81-8.19,0-5.15,4.34-9,11.14-9a18.18,18.18,0,0,1,7.72,1.6l-1.48,5.87a13.9,13.9,0,0,0-5.94-1.55c-2.08,0-3.27.83-3.27,2.21s1.09,2,4.45,3.16c5.2,1.77,7.38,4.44,7.41,8.44,0,5.12-4,8.89-11.85,8.89a19.57,19.57,0,0,1-8.87-1.93Z" transform="translate(-92.36)"/><polyline class="cls-2" points="320.49 6.5 111.16 6.5 6.5 187.78 111.16 369.06 320.49 369.06 425.15 187.78 405.68 154.18"/><polygon class="cls-3" points="77.37 65.02 350.49 65.02 320.49 6.5 111.16 6.5 77.37 65.02"/><circle class="cls-4" cx="271.22" cy="41.75" r="11"/><circle class="cls-4" cx="300.58" cy="41.75" r="11"/><circle class="cls-4" cx="242.79" cy="41.75" r="11"/><line class="cls-5" x1="100.07" y1="127.31" x2="318.86" y2="126.19"/><line class="cls-5" x1="96.39" y1="245.44" x2="329.28" y2="244.24"/><line class="cls-5" x1="130.99" y1="304.12" x2="303.86" y2="303.23"/><line class="cls-5" x1="67.69" y1="186.56" x2="284.26" y2="185.45"/><rect class="cls-3" x="468.6" y="45.9" width="30.79" height="132.1" transform="translate(109.17 -296.71) rotate(42.32)"/><rect class="cls-6" x="489.43" y="61.28" width="2.6" height="113.6" transform="translate(115.06 -299.64) rotate(42.32)"/><polygon class="cls-3" points="316.55 194.38 343.04 185.94 322.48 167.22 316.55 194.38"/><line class="cls-2" x1="320.49" y1="6.5" x2="362.06" y2="84.56"/></g></g></svg>